<?xml version="1.0" encoding="iso-8859-1"?>
<!DOCTYPE svg PUBLIC "-//W3C//DTD SVG 20001102//EN" 
 "http://www.w3.org/TR/2000/CR-SVG-20001102/DTD/svg-20001102.dtd"> 

 <svg xmlns="http://www.w3.org/2000/svg" 
     xmlns:xlink="http://www.w3.org/1999/xlink" 
     width="100%" height="100%"> 
  <defs>
    <linearGradient id="pattern1" 
                    x1="0%" y1="100%" x2="100%" y2="0%">
      <stop offset="0%"   stop-color="yellow"/>
      <stop offset="40%"  stop-color="red"/>
      <stop offset="80%"  stop-color="blue"/>
    </linearGradient> 
  
   <linearGradient id="pattern2" 
                   gradientTransform="rotate(90)">
      <stop offset="0%"   stop-color="#C0C040"/>
      <stop offset="30%"  stop-color="#303000"/>
      <stop offset="60%"  stop-color="#FF0F0F"/>
      <stop offset="90%"  stop-color="#101000"/>
   </linearGradient> 
  </defs>

  <g transform="scale(1.5,0.5)">
   <path d="m 0,50 C 400,200 200,-150 100,350"
         stroke="black" stroke-width="4"
         fill="url(#pattern1)"/>
  </g>

  <g transform="translate(50,50)">
    <g transform="scale(0.5,1)">
     <path d="m 50,50 C 400,100 200,200 100,20"
           fill="red" stroke="black" stroke-width="4"/>
    </g>

    <g transform="scale(1,1)">
     <path d="m 50,50 C 400,100 200,200 100,20"
           fill="yellow" stroke="black" stroke-width="4"/>
    </g>
  </g>

  <g transform="translate(-50,50)">
    <g transform="scale(1,2)">
     <path d="M 50,50 C 400,100 200,200 100,20"
           fill="blue" stroke="black" stroke-width="4"/>
    </g>
  </g>

  <g transform="translate(-50,50)">
   <g transform="scale(0.5, 0.5) translate(195,345)">
    <path d="m20,20 C20,50 20,450 300,200 s-150,-250 200,100"
          fill="blue" style="stroke:#880088;stroke-width:4;"/>
   </g>

   <g transform="scale(0.5, 0.5) translate(185,335)">
    <path d="m20,20 C20,50 20,450 300,200 s-150,-250 200,100"
          fill="url(#pattern2)" 
          style="stroke:#880088;stroke-width:4;"/>
   </g>

   <g transform="scale(0.5, 0.5) translate(180,330)">
    <path d="m20,20 C20,50 20,450 300,200 s-150,-250 200,100"
      fill="blue" style="stroke:#880088;stroke-width:4;"/>
   </g>

   <g transform="scale(0.5, 0.5) translate(170,320)">
    <path d="m20,20 C20,50 20,450 300,200 s-150,-250 200,100"
          fill="url(#pattern2)" style="stroke:black;stroke-width:4;"/>
   </g>
  </g>

  <g transform="scale(0.8,1) translate(380,120)">
   <path d="M0,0 C200,150 400,300 20,250"
         fill="url(#pattern2)" style="stroke:blue;stroke-width:4;"/>
  </g>

  <g transform="scale(2.0,2.5) translate(150,-80)">
   <path d="M200,150 C0,0 400,300 20,250"
         fill="url(#pattern2)" style="stroke:blue;stroke-width:4;"/>
  </g>
</svg>

